<?xml version="1.0" encoding="UTF-8" standalone="no"?>
<!DOCTYPE svg PUBLIC "-//W3C//DTD SVG 1.1//EN"
 "http://www.w3.org/Graphics/SVG/1.1/DTD/svg11.dtd">
<!-- Generated by graphviz version 2.47.0 (20210316.0004)
 -->
<!-- Title: dependencies Pages: 1 -->
<svg width="1247pt" height="284pt"
 viewBox="0.00 0.00 1247.00 284.00" xmlns="http://www.w3.org/2000/svg" xmlns:xlink="http://www.w3.org/1999/xlink">
<g id="graph0" class="graph" transform="scale(1 1) rotate(0) translate(4 280)">
<title>dependencies</title>
<polygon fill="white" stroke="transparent" points="-4,4 -4,-280 1243,-280 1243,4 -4,4"/>
<text text-anchor="start" x="598.51" y="-42.4" font-family="Times-12" font-weight="bold" font-size="14.00">Legend</text>
<polygon fill="#ffffb3" stroke="transparent" points="385.5,-10 385.5,-30 405.5,-30 405.5,-10 385.5,-10"/>
<text text-anchor="start" x="409.13" y="-15.4" font-family="Times-12" font-size="14.00"> &#160;Declarations</text>
<polygon fill="#8dd3c7" stroke="transparent" points="498.5,-10 498.5,-30 518.5,-30 518.5,-10 498.5,-10"/>
<text text-anchor="start" x="522.23" y="-15.4" font-family="Times-12" font-size="14.00"> &#160;Module</text>
<polygon fill="#80b1d3" stroke="transparent" points="584.5,-10 584.5,-30 604.5,-30 604.5,-10 584.5,-10"/>
<text text-anchor="start" x="608.28" y="-15.4" font-family="Times-12" font-size="14.00"> &#160;Bootstrap</text>
<polygon fill="#fdb462" stroke="transparent" points="681.5,-10 681.5,-30 701.5,-30 701.5,-10 681.5,-10"/>
<text text-anchor="start" x="705.17" y="-15.4" font-family="Times-12" font-size="14.00"> &#160;Providers</text>
<polygon fill="#fb8072" stroke="transparent" points="777.5,-10 777.5,-30 797.5,-30 797.5,-10 777.5,-10"/>
<text text-anchor="start" x="801.23" y="-15.4" font-family="Times-12" font-size="14.00"> &#160;Exports</text>
<g id="clust1" class="cluster">
<title>cluster_AppModule</title>
<polygon fill="none" stroke="black" stroke-dasharray="1,5" points="8,-70 8,-268 1231,-268 1231,-70 8,-70"/>
</g>
<g id="clust10" class="cluster">
<title>cluster_AppModule_imports</title>
<polygon fill="none" stroke="black" points="1079,-78 1079,-130 1223,-130 1223,-78 1079,-78"/>
</g>
<g id="clust12" class="cluster">
<title>cluster_AppModule_bootstrap</title>
<polygon fill="none" stroke="black" points="563,-208 563,-260 687,-260 687,-208 563,-208"/>
</g>
<g id="clust2" class="cluster">
<title>cluster_AppModule_declarations</title>
<polygon fill="none" stroke="black" points="16,-78 16,-130 1071,-130 1071,-78 16,-78"/>
</g>
<!-- AppComponent -->
<g id="node1" class="node">
<title>AppComponent</title>
<polygon fill="#ffffb3" stroke="black" points="1062.94,-122 957.06,-122 957.06,-86 1062.94,-86 1062.94,-122"/>
<text text-anchor="middle" x="1010" y="-99.8" font-family="Times,serif" font-size="14.00">AppComponent</text>
</g>
<!-- AppModule -->
<g id="node8" class="node">
<title>AppModule</title>
<polygon fill="#8dd3c7" stroke="black" points="666.66,-187 663.66,-191 642.66,-191 639.66,-187 583.34,-187 583.34,-151 666.66,-151 666.66,-187"/>
<text text-anchor="middle" x="625" y="-164.8" font-family="Times,serif" font-size="14.00">AppModule</text>
</g>
<!-- AppComponent&#45;&gt;AppModule -->
<g id="edge1" class="edge">
<title>AppComponent&#45;&gt;AppModule</title>
<path fill="none" stroke="black" d="M1010,-122.11C1010,-141.34 1010,-169 1010,-169 1010,-169 676.93,-169 676.93,-169"/>
<polygon fill="black" stroke="black" points="676.93,-165.5 666.93,-169 676.93,-172.5 676.93,-165.5"/>
</g>
<!-- DashboardComponent -->
<g id="node2" class="node">
<title>DashboardComponent</title>
<polygon fill="#ffffb3" stroke="black" points="938.97,-122 797.03,-122 797.03,-86 938.97,-86 938.97,-122"/>
<text text-anchor="middle" x="868" y="-99.8" font-family="Times,serif" font-size="14.00">DashboardComponent</text>
</g>
<!-- DashboardComponent&#45;&gt;AppModule -->
<g id="edge2" class="edge">
<title>DashboardComponent&#45;&gt;AppModule</title>
<path fill="none" stroke="black" d="M868,-122.03C868,-138.4 868,-160 868,-160 868,-160 676.77,-160 676.77,-160"/>
<polygon fill="black" stroke="black" points="676.77,-156.5 666.77,-160 676.77,-163.5 676.77,-156.5"/>
</g>
<!-- HeroDetailComponent -->
<g id="node3" class="node">
<title>HeroDetailComponent</title>
<polygon fill="#ffffb3" stroke="black" points="778.52,-122 635.48,-122 635.48,-86 778.52,-86 778.52,-122"/>
<text text-anchor="middle" x="707" y="-99.8" font-family="Times,serif" font-size="14.00">HeroDetailComponent</text>
</g>
<!-- HeroDetailComponent&#45;&gt;AppModule -->
<g id="edge3" class="edge">
<title>HeroDetailComponent&#45;&gt;AppModule</title>
<path fill="none" stroke="black" d="M651.03,-122.11C651.03,-122.11 651.03,-140.99 651.03,-140.99"/>
<polygon fill="black" stroke="black" points="647.53,-140.99 651.03,-150.99 654.53,-140.99 647.53,-140.99"/>
</g>
<!-- HeroSearchComponent -->
<g id="node4" class="node">
<title>HeroSearchComponent</title>
<polygon fill="#ffffb3" stroke="black" points="617.9,-122 470.1,-122 470.1,-86 617.9,-86 617.9,-122"/>
<text text-anchor="middle" x="544" y="-99.8" font-family="Times,serif" font-size="14.00">HeroSearchComponent</text>
</g>
<!-- HeroSearchComponent&#45;&gt;AppModule -->
<g id="edge4" class="edge">
<title>HeroSearchComponent&#45;&gt;AppModule</title>
<path fill="none" stroke="black" d="M600.44,-122.11C600.44,-122.11 600.44,-140.99 600.44,-140.99"/>
<polygon fill="black" stroke="black" points="596.94,-140.99 600.44,-150.99 603.94,-140.99 596.94,-140.99"/>
</g>
<!-- HeroesComponent -->
<g id="node5" class="node">
<title>HeroesComponent</title>
<polygon fill="#ffffb3" stroke="black" points="452.47,-122 331.53,-122 331.53,-86 452.47,-86 452.47,-122"/>
<text text-anchor="middle" x="392" y="-99.8" font-family="Times,serif" font-size="14.00">HeroesComponent</text>
</g>
<!-- HeroesComponent&#45;&gt;AppModule -->
<g id="edge5" class="edge">
<title>HeroesComponent&#45;&gt;AppModule</title>
<path fill="none" stroke="black" d="M392,-122.03C392,-138.4 392,-160 392,-160 392,-160 573.08,-160 573.08,-160"/>
<polygon fill="black" stroke="black" points="573.08,-163.5 583.08,-160 573.08,-156.5 573.08,-163.5"/>
</g>
<!-- MessagesComponent -->
<g id="node6" class="node">
<title>MessagesComponent</title>
<polygon fill="#ffffb3" stroke="black" points="313.75,-122 178.25,-122 178.25,-86 313.75,-86 313.75,-122"/>
<text text-anchor="middle" x="246" y="-99.8" font-family="Times,serif" font-size="14.00">MessagesComponent</text>
</g>
<!-- MessagesComponent&#45;&gt;AppModule -->
<g id="edge6" class="edge">
<title>MessagesComponent&#45;&gt;AppModule</title>
<path fill="none" stroke="black" d="M246,-122.11C246,-141.34 246,-169 246,-169 246,-169 572.99,-169 572.99,-169"/>
<polygon fill="black" stroke="black" points="572.99,-172.5 582.99,-169 572.99,-165.5 572.99,-172.5"/>
</g>
<!-- TextInputComponent -->
<g id="node7" class="node">
<title>TextInputComponent</title>
<polygon fill="#ffffb3" stroke="black" points="160.04,-122 23.96,-122 23.96,-86 160.04,-86 160.04,-122"/>
<text text-anchor="middle" x="92" y="-99.8" font-family="Times,serif" font-size="14.00">TextInputComponent</text>
</g>
<!-- TextInputComponent&#45;&gt;AppModule -->
<g id="edge7" class="edge">
<title>TextInputComponent&#45;&gt;AppModule</title>
<path fill="none" stroke="black" d="M92,-122.29C92,-144.21 92,-178 92,-178 92,-178 573.18,-178 573.18,-178"/>
<polygon fill="black" stroke="black" points="573.18,-181.5 583.18,-178 573.18,-174.5 573.18,-181.5"/>
</g>
<!-- AppComponent  -->
<g id="node10" class="node">
<title>AppComponent </title>
<polygon fill="#80b1d3" stroke="black" points="679.44,-252 570.56,-252 570.56,-216 679.44,-216 679.44,-252"/>
<text text-anchor="middle" x="625" y="-229.8" font-family="Times,serif" font-size="14.00">AppComponent </text>
</g>
<!-- AppModule&#45;&gt;AppComponent  -->
<g id="edge9" class="edge">
<title>AppModule&#45;&gt;AppComponent </title>
<path fill="none" stroke="black" stroke-dasharray="1,5" d="M625,-187.11C625,-187.11 625,-205.99 625,-205.99"/>
<polygon fill="black" stroke="black" points="621.5,-205.99 625,-215.99 628.5,-205.99 621.5,-205.99"/>
</g>
<!-- AppRoutingModule -->
<g id="node9" class="node">
<title>AppRoutingModule</title>
<polygon fill="#8dd3c7" stroke="black" points="1215.27,-122 1212.27,-126 1191.27,-126 1188.27,-122 1086.73,-122 1086.73,-86 1215.27,-86 1215.27,-122"/>
<text text-anchor="middle" x="1151" y="-99.8" font-family="Times,serif" font-size="14.00">AppRoutingModule</text>
</g>
<!-- AppRoutingModule&#45;&gt;AppModule -->
<g id="edge8" class="edge">
<title>AppRoutingModule&#45;&gt;AppModule</title>
<path fill="none" stroke="black" d="M1151,-122.29C1151,-144.21 1151,-178 1151,-178 1151,-178 676.71,-178 676.71,-178"/>
<polygon fill="black" stroke="black" points="676.71,-174.5 666.71,-178 676.71,-181.5 676.71,-174.5"/>
</g>
</g>
</svg>
