<?xml version="1.0" encoding="UTF-8" standalone="no"?>
<!DOCTYPE svg PUBLIC "-//W3C//DTD SVG 1.1//EN"
 "http://www.w3.org/Graphics/SVG/1.1/DTD/svg11.dtd">
<!-- Generated by graphviz version 2.47.0 (20210316.0004)
 -->
<!-- Title: dependencies Pages: 1 -->
<svg width="1247pt" height="284pt"
 viewBox="0.00 0.00 1247.00 284.00" xmlns="http://www.w3.org/2000/svg" xmlns:xlink="http://www.w3.org/1999/xlink">
<g id="graph0" class="graph" transform="scale(1 1) rotate(0) translate(4 280)">
<title>dependencies</title>
<polygon fill="white" stroke="transparent" points="-4,4 -4,-280 1243,-280 1243,4 -4,4"/>
<text text-anchor="start" x="598.51" y="-42.4" font-family="Times-12" font-weight="bold" font-size="14.00">Legend</text>
<polygon fill="#ffffb3" stroke="transparent" points="385.5,-10 385.5,-30 405.5,-30 405.5,-10 385.5,-10"/>
<text text-anchor="start" x="409.13" y="-15.4" font-family="Times-12" font-size="14.00"> &#160;Declarations</text>
<polygon fill="#8dd3c7" stroke="transparent" points="498.5,-10 498.5,-30 518.5,-30 518.5,-10 498.5,-10"/>
<text text-anchor="start" x="522.23" y="-15.4" font-family="Times-12" font-size="14.00"> &#160;Module</text>
<polygon fill="#80b1d3" stroke="transparent" points="584.5,-10 584.5,-30 604.5,-30 604.5,-10 584.5,-10"/>
<text text-anchor="start" x="608.28" y="-15.4" font-family="Times-12" font-size="14.00"> &#160;Bootstrap</text>
<polygon fill="#fdb462" stroke="transparent" points="681.5,-10 681.5,-30 701.5,-30 701.5,-10 681.5,-10"/>
<text text-anchor="start" x="705.17" y="-15.4" font-family="Times-12" font-size="14.00"> &#160;Providers</text>
<polygon fill="#fb8072" stroke="transparent" points="777.5,-10 777.5,-30 797.5,-30 797.5,-10 777.5,-10"/>
<text text-anchor="start" x="801.23" y="-15.4" font-family="Times-12" font-size="14.00"> &#160;Exports</text>
<g id="clust1" class="cluster">
<title>cluster_AppModule</title>
<polygon fill="none" stroke="black" stroke-dasharray="1,5" points="8,-70 8,-268 1231,-268 1231,-70 8,-70"/>
</g>
<g id="clust2" class="cluster">
<title>cluster_AppModule_declarations</title>
<polygon fill="none" stroke="black" points="168,-78 168,-130 1223,-130 1223,-78 168,-78"/>
</g>
<g id="clust10" class="cluster">
<title>cluster_AppModule_imports</title>
<polygon fill="none" stroke="black" points="16,-78 16,-130 160,-130 160,-78 16,-78"/>
</g>
<g id="clust12" class="cluster">
<title>cluster_AppModule_bootstrap</title>
<polygon fill="none" stroke="black" points="558,-208 558,-260 682,-260 682,-208 558,-208"/>
</g>
<!-- AppComponent -->
<g id="node1" class="node">
<title>AppComponent</title>
<polygon fill="#ffffb3" stroke="black" points="1214.94,-122 1109.06,-122 1109.06,-86 1214.94,-86 1214.94,-122"/>
<text text-anchor="middle" x="1162" y="-99.8" font-family="Times,serif" font-size="14.00">AppComponent</text>
</g>
<!-- AppModule -->
<g id="node8" class="node">
<title>AppModule</title>
<polygon fill="#8dd3c7" stroke="black" points="661.66,-187 658.66,-191 637.66,-191 634.66,-187 578.34,-187 578.34,-151 661.66,-151 661.66,-187"/>
<text text-anchor="middle" x="620" y="-164.8" font-family="Times,serif" font-size="14.00">AppModule</text>
</g>
<!-- AppComponent&#45;&gt;AppModule -->
<g id="edge1" class="edge">
<title>AppComponent&#45;&gt;AppModule</title>
<path fill="none" stroke="black" d="M1162,-122.29C1162,-144.21 1162,-178 1162,-178 1162,-178 672.08,-178 672.08,-178"/>
<polygon fill="black" stroke="black" points="672.08,-174.5 662.08,-178 672.08,-181.5 672.08,-174.5"/>
</g>
<!-- DashboardComponent -->
<g id="node2" class="node">
<title>DashboardComponent</title>
<polygon fill="#ffffb3" stroke="black" points="1090.97,-122 949.03,-122 949.03,-86 1090.97,-86 1090.97,-122"/>
<text text-anchor="middle" x="1020" y="-99.8" font-family="Times,serif" font-size="14.00">DashboardComponent</text>
</g>
<!-- DashboardComponent&#45;&gt;AppModule -->
<g id="edge2" class="edge">
<title>DashboardComponent&#45;&gt;AppModule</title>
<path fill="none" stroke="black" d="M1020,-122.11C1020,-141.34 1020,-169 1020,-169 1020,-169 671.68,-169 671.68,-169"/>
<polygon fill="black" stroke="black" points="671.68,-165.5 661.68,-169 671.67,-172.5 671.68,-165.5"/>
</g>
<!-- HeroDetailComponent -->
<g id="node3" class="node">
<title>HeroDetailComponent</title>
<polygon fill="#ffffb3" stroke="black" points="930.52,-122 787.48,-122 787.48,-86 930.52,-86 930.52,-122"/>
<text text-anchor="middle" x="859" y="-99.8" font-family="Times,serif" font-size="14.00">HeroDetailComponent</text>
</g>
<!-- HeroDetailComponent&#45;&gt;AppModule -->
<g id="edge3" class="edge">
<title>HeroDetailComponent&#45;&gt;AppModule</title>
<path fill="none" stroke="black" d="M859,-122.03C859,-138.4 859,-160 859,-160 859,-160 671.9,-160 671.9,-160"/>
<polygon fill="black" stroke="black" points="671.9,-156.5 661.9,-160 671.9,-163.5 671.9,-156.5"/>
</g>
<!-- HeroSearchComponent -->
<g id="node4" class="node">
<title>HeroSearchComponent</title>
<polygon fill="#ffffb3" stroke="black" points="769.9,-122 622.1,-122 622.1,-86 769.9,-86 769.9,-122"/>
<text text-anchor="middle" x="696" y="-99.8" font-family="Times,serif" font-size="14.00">HeroSearchComponent</text>
</g>
<!-- HeroSearchComponent&#45;&gt;AppModule -->
<g id="edge4" class="edge">
<title>HeroSearchComponent&#45;&gt;AppModule</title>
<path fill="none" stroke="black" d="M642.06,-122.11C642.06,-122.11 642.06,-140.99 642.06,-140.99"/>
<polygon fill="black" stroke="black" points="638.56,-140.99 642.06,-150.99 645.56,-140.99 638.56,-140.99"/>
</g>
<!-- HeroesComponent -->
<g id="node5" class="node">
<title>HeroesComponent</title>
<polygon fill="#ffffb3" stroke="black" points="604.47,-122 483.53,-122 483.53,-86 604.47,-86 604.47,-122"/>
<text text-anchor="middle" x="544" y="-99.8" font-family="Times,serif" font-size="14.00">HeroesComponent</text>
</g>
<!-- HeroesComponent&#45;&gt;AppModule -->
<g id="edge5" class="edge">
<title>HeroesComponent&#45;&gt;AppModule</title>
<path fill="none" stroke="black" d="M591.33,-122.11C591.33,-122.11 591.33,-140.99 591.33,-140.99"/>
<polygon fill="black" stroke="black" points="587.83,-140.99 591.33,-150.99 594.83,-140.99 587.83,-140.99"/>
</g>
<!-- MessagesComponent -->
<g id="node6" class="node">
<title>MessagesComponent</title>
<polygon fill="#ffffb3" stroke="black" points="465.75,-122 330.25,-122 330.25,-86 465.75,-86 465.75,-122"/>
<text text-anchor="middle" x="398" y="-99.8" font-family="Times,serif" font-size="14.00">MessagesComponent</text>
</g>
<!-- MessagesComponent&#45;&gt;AppModule -->
<g id="edge6" class="edge">
<title>MessagesComponent&#45;&gt;AppModule</title>
<path fill="none" stroke="black" d="M398,-122.03C398,-138.4 398,-160 398,-160 398,-160 568.24,-160 568.24,-160"/>
<polygon fill="black" stroke="black" points="568.24,-163.5 578.24,-160 568.24,-156.5 568.24,-163.5"/>
</g>
<!-- TextInputComponent -->
<g id="node7" class="node">
<title>TextInputComponent</title>
<polygon fill="#ffffb3" stroke="black" points="312.04,-122 175.96,-122 175.96,-86 312.04,-86 312.04,-122"/>
<text text-anchor="middle" x="244" y="-99.8" font-family="Times,serif" font-size="14.00">TextInputComponent</text>
</g>
<!-- TextInputComponent&#45;&gt;AppModule -->
<g id="edge7" class="edge">
<title>TextInputComponent&#45;&gt;AppModule</title>
<path fill="none" stroke="black" d="M244,-122.11C244,-141.34 244,-169 244,-169 244,-169 568.32,-169 568.32,-169"/>
<polygon fill="black" stroke="black" points="568.32,-172.5 578.32,-169 568.32,-165.5 568.32,-172.5"/>
</g>
<!-- AppComponent  -->
<g id="node10" class="node">
<title>AppComponent </title>
<polygon fill="#80b1d3" stroke="black" points="674.44,-252 565.56,-252 565.56,-216 674.44,-216 674.44,-252"/>
<text text-anchor="middle" x="620" y="-229.8" font-family="Times,serif" font-size="14.00">AppComponent </text>
</g>
<!-- AppModule&#45;&gt;AppComponent  -->
<g id="edge9" class="edge">
<title>AppModule&#45;&gt;AppComponent </title>
<path fill="none" stroke="black" stroke-dasharray="1,5" d="M620,-187.11C620,-187.11 620,-205.99 620,-205.99"/>
<polygon fill="black" stroke="black" points="616.5,-205.99 620,-215.99 623.5,-205.99 616.5,-205.99"/>
</g>
<!-- AppRoutingModule -->
<g id="node9" class="node">
<title>AppRoutingModule</title>
<polygon fill="#8dd3c7" stroke="black" points="152.27,-122 149.27,-126 128.27,-126 125.27,-122 23.73,-122 23.73,-86 152.27,-86 152.27,-122"/>
<text text-anchor="middle" x="88" y="-99.8" font-family="Times,serif" font-size="14.00">AppRoutingModule</text>
</g>
<!-- AppRoutingModule&#45;&gt;AppModule -->
<g id="edge8" class="edge">
<title>AppRoutingModule&#45;&gt;AppModule</title>
<path fill="none" stroke="black" d="M88,-122.29C88,-144.21 88,-178 88,-178 88,-178 568.25,-178 568.25,-178"/>
<polygon fill="black" stroke="black" points="568.25,-181.5 578.25,-178 568.25,-174.5 568.25,-181.5"/>
</g>
</g>
</svg>
